<svg xmlns="http://www.w3.org/2000/svg" version="1.1" xmlns:xlink="http://www.w3.org/1999/xlink" xmlns:svgjs="http://svgjs.dev/svgjs" width="1000" height="750" viewBox="0 0 1000 750"><rect width="1000" height="750" fill="#000000"></rect><g transform="matrix(0.834,0,0,0.834,82.49454545454546,115.4193570850203)"><svg viewBox="0 0 396 247" data-background-color="#0a192e" preserveAspectRatio="xMidYMid meet" height="623" width="1000" xmlns="http://www.w3.org/2000/svg" xmlns:xlink="http://www.w3.org/1999/xlink"><g id="tight-bounds" transform="matrix(1,0,0,1,0.2400000000000091,-0.09999999999999432)"><svg viewBox="0 0 395.52 247.2" height="247.2" width="395.52"><g><svg></svg></g><g><svg viewBox="0 0 395.52 247.2" height="247.2" width="395.52"><g transform="matrix(1,0,0,1,75.54432,99.6258200156617)"><svg viewBox="0 0 244.43135999999998 47.94835996867658" height="47.94835996867658" width="244.43135999999998"><g><svg viewBox="0 0 244.43135999999998 47.94835996867658" height="47.94835996867658" width="244.43135999999998"><g><svg viewBox="0 0 244.43135999999998 47.94835996867658" height="47.94835996867658" width="244.43135999999998"><g><svg viewBox="0 0 244.43135999999998 47.94835996867658" height="47.94835996867658" width="244.43135999999998"><g><svg viewBox="0 0 244.43135999999998 47.94835996867658" height="47.94835996867658" width="244.43135999999998"><g><svg viewBox="0 0 244.43135999999998 47.94835996867658" height="47.94835996867658" width="244.43135999999998"><g transform="matrix(1,0,0,1,0,0)"><svg width="244.43135999999998" viewBox="-0.8500000238418579 -38.75 257.9200134277344 50.099998474121094" height="47.94835996867658" data-palette-color="#63ffda"><path d="M21.85-11.1Q15.3-10 11.4-9.1L11.4-9.1Q10.2-7.2 9.85-6.55L9.85-6.55Q8.8-4.7 7.98-3.48 7.15-2.25 6.2-1.3L6.2-1.3Q5.15-0.25 4.48 0.2 3.8 0.65 2.9 0.65L2.9 0.65Q1.4 0.65 0.28-0.03-0.85-0.7-0.85-1.4L-0.85-1.4Q-0.75-1.5 0.25-3.63 1.25-5.75 3.95-8.95L3.95-8.95Q3.95-9.35 3.7-9.95 3.45-10.55 3.45-10.65L3.45-10.65Q3.45-12.1 8-14.15L8-14.15Q10.55-17.95 13.38-21.65 16.2-25.35 20.3-30.4L20.3-30.4Q21.3-31.65 22.85-32.45 24.4-33.25 25.95-33.25L25.95-33.25Q27.55-33.25 28.35-32.95 29.15-32.65 29.38-32.15 29.6-31.65 29.6-30.75L29.6-30.75Q29.4-29.25 29.35-28.5L29.35-28.5Q28.6-22.45 28.23-18.13 27.85-13.8 27.85-9.5L27.85-9.5Q27.85-5.55 28.2-2.25L28.2-2.25Q28.05-1.05 27.15-0.08 26.25 0.9 25.05 0.9L25.05 0.9Q22.75 0.9 22.03-0.25 21.3-1.4 21.3-4.15L21.3-4.15Q21.3-6.15 21.85-11.1L21.85-11.1ZM15.35-14.85Q16.25-15.05 18.1-15.3L18.1-15.3 22.1-15.9Q22.55-22.85 23.15-25.9L23.15-25.9Q21.2-23.6 15.35-14.85L15.35-14.85ZM47.95-35.85L45.85-27.2Q40.2-3.45 39.2-0.05L39.2-0.05Q39.1 0.25 38.17 0.73 37.25 1.2 36.9 1.2L36.9 1.2Q35.5 1.2 34.2 0.5 32.9-0.2 32.8-1.75L32.8-1.75Q32.85-1.85 33.3-2.8 33.75-3.75 34.2-5.5L34.2-5.5Q35.35-9.8 36.82-15.7 38.3-21.6 38.8-23.6L38.8-23.6 41.15-33.15Q41.1-33.55 41.1-37.3L41.1-37.3Q41.25-37.95 42.22-38.35 43.2-38.75 44-38.75L44-38.75Q45.25-38.75 46.57-37.9 47.9-37.05 47.95-35.85L47.95-35.85ZM53.6-2.2Q53.55-1.9 52.27 3.28 51 8.45 50.5 9.8L50.5 9.8Q50.3 10.35 49.3 10.63 48.3 10.9 47.85 10.9L47.85 10.9Q46.75 10.9 46.02 10.2 45.3 9.5 45.25 8.1L45.25 8.1 48.75-6.25Q50.75-14.1 52.05-19.65L52.05-19.65Q52.05-19.95 51.7-21.25L51.7-21.25Q51.55-22.05 51.4-22.75 51.25-23.45 51.2-23.8L51.2-23.8Q51.3-24.45 52.22-24.85 53.15-25.25 53.95-25.25L53.95-25.25Q55.15-25.25 56.32-24.4 57.5-23.55 57.65-22.35L57.65-22.35 57.5-21.05Q59.75-23.85 63.25-23.85L63.25-23.85Q66.1-23.85 68.17-22.48 70.25-21.1 71.35-18.78 72.45-16.45 72.45-13.65L72.45-13.65Q72.45-9.9 71-6.6 69.55-3.3 66.65-1.28 63.75 0.75 59.65 0.75L59.65 0.75Q58.35 0.75 56.3-0.13 54.25-1 53.6-2.2L53.6-2.2ZM55.15-8.55Q55.05-7.95 55.05-7.7L55.05-7.7Q55.1-6.45 55.87-5.5 56.65-4.55 57.7-4.03 58.75-3.5 59.45-3.5L59.45-3.5Q61.65-3.5 63.32-5.18 65-6.85 65.9-9.33 66.8-11.8 66.8-14.05L66.8-14.05Q66.8-16.15 65.67-17.78 64.55-19.4 62.85-19.4L62.85-19.4Q60.95-19.4 59.72-18.57 58.5-17.75 56.95-16.05L56.95-16.05 55.15-8.55ZM82.09-16.5Q83.24-18.75 85.27-20.35 87.29-21.95 89.39-22.8 91.49-23.65 92.84-23.65L92.84-23.65Q95.44-23.65 96.59-22.68 97.74-21.7 97.74-19.6L97.74-19.6Q94.79-11.9 93.84-3L93.84-3 94.54-0.55Q93.94 0.6 92.94 1.28 91.94 1.95 89.89 1.95L89.89 1.95Q88.69 1.95 88.14 1.15 87.59 0.35 87.59-0.85L87.59-0.85Q87.59-4.2 88.57-8.22 89.54-12.25 90.84-16.45L90.84-16.45Q91.34-18.05 91.34-18.1L91.34-18.1Q91.34-18.8 90.54-18.8L90.54-18.8Q89.49-18.8 87.49-17.25 85.49-15.7 83.34-12.03 81.19-8.35 79.74-2.4L79.74-2.4Q79.69-2.15 79.49-1.35 79.29-0.55 78.59-0.2 77.89 0.15 76.44 0.15L76.44 0.15Q74.69 0.15 73.74-0.23 72.79-0.6 72.79-1.7L72.79-1.7Q79.34-27.45 80.89-33.9L80.89-33.9Q80.84-34.55 80.82-35.63 80.79-36.7 80.79-37.3L80.79-37.3Q80.94-38 81.87-38.38 82.79-38.75 83.74-38.75L83.74-38.75Q85.34-38.75 86.44-37.9 87.54-37.05 87.64-35.75L87.64-35.75 82.09-16.5ZM119.74-2.6Q119.84-1.3 120.09-0.25L120.09-0.25Q119.99 0.05 119.22 0.35 118.44 0.65 117.89 0.65L117.89 0.65Q116.09 0.65 115.32 0.13 114.54-0.4 114.54-1.45L114.54-1.45Q114.54-2.45 114.74-3.45L114.74-3.45Q113.64-1.95 111.52-0.98 109.39 0 108.09 0L108.09 0Q104.74 0 102.52-1.95 100.29-3.9 100.29-8.2L100.29-8.2Q100.29-12.25 102.22-15.83 104.14-19.4 107.54-21.58 110.94-23.75 115.09-23.75L115.09-23.75Q115.89-23.75 117.19-23.33 118.49-22.9 119.82-21.88 121.14-20.85 122.04-19.25L122.04-19.25Q122.44-19.25 122.99-18.85 123.54-18.45 123.54-18.05L123.54-18.05Q123.54-17.6 123.39-17.15L123.39-17.15 119.74-2.6ZM117.49-16.6Q117.19-17.7 116.32-18.45 115.44-19.2 114.74-19.2L114.74-19.2Q112.44-19.2 110.42-17.57 108.39-15.95 107.14-13.55 105.89-11.15 105.89-9L105.89-9Q105.89-6.9 106.39-5.55 106.89-4.2 108.34-4.2L108.34-4.2Q109.59-4.2 111.22-4.95 112.84-5.7 114.12-6.98 115.39-8.25 115.79-9.65L115.79-9.65 117.49-16.6ZM139.89-35.85L137.79-27.2Q132.14-3.45 131.14-0.05L131.14-0.05Q131.04 0.25 130.11 0.73 129.19 1.2 128.84 1.2L128.84 1.2Q127.44 1.2 126.14 0.5 124.84-0.2 124.74-1.75L124.74-1.75Q124.79-1.85 125.24-2.8 125.69-3.75 126.14-5.5L126.14-5.5Q127.29-9.8 128.76-15.7 130.24-21.6 130.74-23.6L130.74-23.6 133.09-33.15Q133.04-33.55 133.04-37.3L133.04-37.3Q133.19-37.95 134.16-38.35 135.14-38.75 135.94-38.75L135.94-38.75Q137.19-38.75 138.51-37.9 139.84-37.05 139.89-35.85L139.89-35.85ZM159.09-2.6Q159.19-1.3 159.44-0.25L159.44-0.25Q159.34 0.05 158.56 0.35 157.79 0.65 157.24 0.65L157.24 0.65Q155.44 0.65 154.66 0.13 153.89-0.4 153.89-1.45L153.89-1.45Q153.89-2.45 154.09-3.45L154.09-3.45Q152.99-1.95 150.86-0.98 148.74 0 147.44 0L147.44 0Q144.09 0 141.86-1.95 139.64-3.9 139.64-8.2L139.64-8.2Q139.64-12.25 141.56-15.83 143.49-19.4 146.89-21.58 150.29-23.75 154.44-23.75L154.44-23.75Q155.24-23.75 156.54-23.33 157.84-22.9 159.16-21.88 160.49-20.85 161.39-19.25L161.39-19.25Q161.79-19.25 162.34-18.85 162.89-18.45 162.89-18.05L162.89-18.05Q162.89-17.6 162.74-17.15L162.74-17.15 159.09-2.6ZM156.84-16.6Q156.54-17.7 155.66-18.45 154.79-19.2 154.09-19.2L154.09-19.2Q151.79-19.2 149.76-17.57 147.74-15.95 146.49-13.55 145.24-11.15 145.24-9L145.24-9Q145.24-6.9 145.74-5.55 146.24-4.2 147.69-4.2L147.69-4.2Q148.94-4.2 150.56-4.95 152.19-5.7 153.46-6.98 154.74-8.25 155.14-9.65L155.14-9.65 156.84-16.6ZM170.53 11.35Q168.23 11.35 166.21 10.35 164.18 9.35 162.81 7.78 161.43 6.2 160.83 4.6L160.83 4.6Q160.88 3.7 161.71 2.83 162.53 1.95 164.58 1.95L164.58 1.95Q165.23 1.95 165.71 2.45 166.18 2.95 166.78 4.05L166.78 4.05Q167.58 5.55 168.46 6.38 169.33 7.2 170.88 7.2L170.88 7.2Q172.63 7.2 174.26 5.83 175.88 4.45 177.06 2.1 178.23-0.25 178.68-3.1L178.68-3.1Q177.58-1.6 176.16-0.8 174.73 0 173.48 0L173.48 0Q169.48 0 167.16-1.78 164.83-3.55 164.83-8.1L164.83-8.1Q164.83-12.2 167.11-15.75 169.38-19.3 173.18-21.4 176.98-23.5 181.33-23.5L181.33-23.5Q184.18-23.5 185.56-22.35 186.93-21.2 187.23-19.45L187.23-19.45Q188.08-19.05 188.13-18.65L188.13-18.65Q188.13-18.5 187.93-17.6L187.93-17.6Q186.98-13.5 183.93-1.4L183.93-1.4 183.38 0.8Q182.13 5.65 178.61 8.5 175.08 11.35 170.53 11.35L170.53 11.35ZM181.83-18.35Q181.43-19.05 181.06-19.25 180.68-19.45 179.93-19.45L179.93-19.45Q177.58-19.45 175.38-17.93 173.18-16.4 171.83-13.98 170.48-11.55 170.48-9L170.48-9Q170.48-7.15 171.16-5.8 171.83-4.45 173.33-4.25L173.33-4.25Q175.33-4.6 177.11-6.05 178.88-7.5 179.53-9.8L179.53-9.8 181.83-18.35ZM209.43-2.6Q209.53-1.3 209.78-0.25L209.78-0.25Q209.68 0.05 208.91 0.35 208.13 0.65 207.58 0.65L207.58 0.65Q205.78 0.65 205.01 0.13 204.23-0.4 204.23-1.45L204.23-1.45Q204.23-2.45 204.43-3.45L204.43-3.45Q203.33-1.95 201.21-0.98 199.08 0 197.78 0L197.78 0Q194.43 0 192.21-1.95 189.98-3.9 189.98-8.2L189.98-8.2Q189.98-12.25 191.91-15.83 193.83-19.4 197.23-21.58 200.63-23.75 204.78-23.75L204.78-23.75Q205.58-23.75 206.88-23.33 208.18-22.9 209.51-21.88 210.83-20.85 211.73-19.25L211.73-19.25Q212.13-19.25 212.68-18.85 213.23-18.45 213.23-18.05L213.23-18.05Q213.23-17.6 213.08-17.15L213.08-17.15 209.43-2.6ZM207.18-16.6Q206.88-17.7 206.01-18.45 205.13-19.2 204.43-19.2L204.43-19.2Q202.13-19.2 200.11-17.57 198.08-15.95 196.83-13.55 195.58-11.15 195.58-9L195.58-9Q195.58-6.9 196.08-5.55 196.58-4.2 198.03-4.2L198.03-4.2Q199.28-4.2 200.91-4.95 202.53-5.7 203.81-6.98 205.08-8.25 205.48-9.65L205.48-9.65 207.18-16.6ZM225.93-18.1L222.78-5.5Q222.78-4.35 223.38-3.68 223.98-3 225.08-3L225.08-3Q226.58-3 227.55-3.88 228.53-4.75 229.63-6.35L229.63-6.35Q230.43-7.5 230.93-8 231.43-8.5 232.08-8.5L232.08-8.5Q233.38-8.5 233.93-8.18 234.48-7.85 234.48-6.85L234.48-6.85Q234.48-6.4 234.38-5.78 234.28-5.15 234.13-4.85L234.13-4.85Q232.93-2.3 230.2-0.45 227.48 1.4 224.03 1.4L224.03 1.4Q220.58 1.4 218.83-0.28 217.08-1.95 217.08-5.05L217.08-5.05Q217.08-5.5 217.53-7.4 217.98-9.3 218.68-11.95L218.68-11.95 220.08-17.65 217.03-17.4Q216.43-17.4 216.13-17.85 215.83-18.3 215.83-18.95L215.83-18.95Q215.83-20.2 216.73-21.45L216.73-21.45Q216.83-21.6 217.73-21.75 218.63-21.9 219.93-22.05L219.93-22.05 221.28-22.2 222.98-29.5Q223.48-30.8 224.5-31.53 225.53-32.25 226.43-32.25L226.43-32.25Q227.43-32.25 228.13-31.65 228.83-31.05 228.88-30.25L228.88-30.25 227.08-22.75Q229.03-23 230.7-23.18 232.38-23.35 233.33-23.35L233.33-23.35Q235.23-23.35 235.23-21.15L235.23-21.15Q235.23-20.3 234.5-19.63 233.78-18.95 232.93-18.8L232.93-18.8 225.93-18.1ZM247.78-18.1L244.63-5.5Q244.63-4.35 245.22-3.68 245.83-3 246.93-3L246.93-3Q248.43-3 249.4-3.88 250.38-4.75 251.47-6.35L251.47-6.35Q252.28-7.5 252.78-8 253.28-8.5 253.93-8.5L253.93-8.5Q255.22-8.5 255.78-8.18 256.32-7.85 256.32-6.85L256.32-6.85Q256.32-6.4 256.23-5.78 256.13-5.15 255.98-4.85L255.98-4.85Q254.78-2.3 252.05-0.45 249.33 1.4 245.88 1.4L245.88 1.4Q242.43 1.4 240.68-0.28 238.93-1.95 238.93-5.05L238.93-5.05Q238.93-5.5 239.38-7.4 239.83-9.3 240.53-11.95L240.53-11.95 241.93-17.65 238.88-17.4Q238.28-17.4 237.97-17.85 237.68-18.3 237.68-18.95L237.68-18.95Q237.68-20.2 238.58-21.45L238.58-21.45Q238.68-21.6 239.58-21.75 240.47-21.9 241.78-22.05L241.78-22.05 243.13-22.2 244.83-29.5Q245.33-30.8 246.35-31.53 247.38-32.25 248.28-32.25L248.28-32.25Q249.28-32.25 249.97-31.65 250.68-31.05 250.72-30.25L250.72-30.25 248.93-22.75Q250.88-23 252.55-23.18 254.22-23.35 255.18-23.35L255.18-23.35Q257.07-23.35 257.07-21.15L257.07-21.15Q257.07-20.3 256.35-19.63 255.63-18.95 254.78-18.8L254.78-18.8 247.78-18.1Z" opacity="1" transform="matrix(1,0,0,1,0,0)" fill="#ffffff" class="undefined-text-0" data-fill-palette-color="primary" id="text-0"></path></svg></g></svg></g></svg></g></svg></g></svg></g></svg></g></svg></g><g><path d="M0 123.6c0-68.262 55.338-123.6 123.6-123.6 58.048 0 106.749 40.015 120.025 93.966l-2.228 0c-13.227-52.745-60.95-91.804-117.797-91.804-67.068 0-121.438 54.37-121.438 121.438 0 67.068 54.37 121.438 121.438 121.438 56.846 0 104.57-39.059 117.797-91.804h2.228c-13.276 53.951-61.977 93.966-120.025 93.966-68.262 0-123.6-55.338-123.6-123.6z" fill="#ffffff" stroke="transparent" data-fill-palette-color="tertiary"></path></g></svg></g><defs></defs></svg><rect width="395.52" height="247.2" fill="none" stroke="none" visibility="hidden"></rect></g></svg></g></svg>